<svg width="32" height="32" viewBox="0 0 32 32" fill="none" xmlns="http://www.w3.org/2000/svg">
<path d="M25.5921 8.55684C26.1854 7.96353 26.1854 7.00158 25.5921 6.40827C24.9987 5.81496 24.0368 5.81496 23.4435 6.40827L15.9997 13.8521L8.55586 6.40827C7.96255 5.81496 7.0006 5.81496 6.40729 6.40827C5.81398 7.00158 5.81398 7.96353 6.40729 8.55684L13.8511 16.0007L6.40729 23.4445C5.81398 24.0378 5.81398 24.9997 6.40729 25.593C7.0006 26.1863 7.96255 26.1863 8.55586 25.593L15.9997 18.1492L23.4435 25.593C24.0368 26.1863 24.9987 26.1863 25.5921 25.593C26.1854 24.9997 26.1854 24.0378 25.5921 23.4445L18.1482 16.0007L25.5921 8.55684Z" fill="white"/>
</svg>
