<svg width="136" height="80" viewBox="0 0 136 80" fill="none" xmlns="http://www.w3.org/2000/svg">
<path d="M68.0001 24.7672L92.1079 9.81713L93 9.78761L85.3432 34.0002L80.1587 33.2821L84.6524 19.7927L68.3058 29.487H67.6944L62.6117 26.4728L64.3946 22.6172L68.0001 24.7672Z" fill="white"/>
<path d="M67.8382 1.5L68.3763 1.50076L76.5292 18.1284L72.1507 20.733L68.049 12.0284L63.1911 21.8917L63.1945 21.8939L61.3638 25.7326L51.3473 19.7927L55.8413 33.2821L50.6564 34.0002L43 9.7876L43.8916 9.81711L58.9046 19.2104L67.8382 1.5Z" fill="white"/>
<path d="M20.5204 49.8963L30.0604 37.8003H37.8724V63.0003H30.5644V46.9083L20.5204 59.2203H20.1604L10.1164 46.9083V63.0003H3.02441V37.8003H11.0524L20.5204 49.8963Z" fill="white"/>
<path d="M49.6145 37.8003V63.0003H42.2705V37.8003H49.6145Z" fill="white"/>
<path fill-rule="evenodd" clip-rule="evenodd" d="M77.2436 63.0003H85.0556L72.0236 37.8003H63.9956L50.9636 63.0003H58.6676L61.0436 58.1763H74.8676L77.2436 63.0003ZM63.5636 52.9563L67.9556 44.0283L72.3116 52.9563H63.5636Z" fill="white"/>
<path d="M103.841 49.8963L113.381 37.8003H121.193V63.0003H113.885V46.9083L103.841 59.2203H103.481L93.4367 46.9083V63.0003H86.3447V37.8003H94.3727L103.841 49.8963Z" fill="white"/>
<path d="M132.935 63.0003V37.8003H125.591V63.0003H132.935Z" fill="white"/>
<path d="M4.04378 72.4502C4.04378 74.9592 5.78578 76.2592 8.42478 76.2592C10.0108 76.2592 11.3238 75.7392 12.0258 74.5172L13.0658 75.0372C12.2078 76.4022 10.6218 77.2732 8.39878 77.2732C5.00578 77.2732 2.92578 75.4012 2.92578 72.4502C2.92578 69.4992 5.00578 67.6272 8.43778 67.6272C10.6218 67.6272 12.2078 68.5112 13.0658 69.8632L12.0258 70.3832C11.3108 69.1742 10.0108 68.6412 8.42478 68.6412C5.78578 68.6412 4.04378 69.9412 4.04378 72.4502Z" fill="white"/>
<path fill-rule="evenodd" clip-rule="evenodd" d="M26.8403 72.4502C26.8403 75.4142 24.7603 77.2732 21.3023 77.2732C17.8443 77.2732 15.7643 75.4142 15.7643 72.4502C15.7643 69.4862 17.8443 67.6272 21.3023 67.6272C24.7603 67.6272 26.8403 69.4862 26.8403 72.4502ZM16.8823 72.4502C16.8823 74.8942 18.6243 76.2592 21.3023 76.2592C23.9803 76.2592 25.7223 74.8942 25.7223 72.4502C25.7223 70.0062 23.9803 68.6412 21.3023 68.6412C18.6243 68.6412 16.8823 70.0062 16.8823 72.4502Z" fill="white"/>
<path d="M39.1924 67.9002V75.4012L31.7694 67.9002H30.5863V77.0002H31.6523V69.2912L39.2963 77.0002H40.2584V67.9002H39.1924Z" fill="white"/>
<path fill-rule="evenodd" clip-rule="evenodd" d="M44.669 67.9002H49.089C52.417 67.9002 54.549 69.6552 54.549 72.4502C54.549 75.2452 52.417 77.0002 49.089 77.0002H44.669V67.9002ZM45.761 75.9862H49.011C51.598 75.9862 53.431 74.7772 53.431 72.4502C53.431 70.1232 51.598 68.9142 49.011 68.9142H45.761V75.9862Z" fill="white"/>
<path fill-rule="evenodd" clip-rule="evenodd" d="M63.1566 77.2732C66.6146 77.2732 68.6945 75.4142 68.6945 72.4502C68.6945 69.4862 66.6146 67.6272 63.1566 67.6272C59.6986 67.6272 57.6186 69.4862 57.6186 72.4502C57.6186 75.4142 59.6986 77.2732 63.1566 77.2732ZM63.1566 76.2592C60.4785 76.2592 58.7366 74.8942 58.7366 72.4502C58.7366 70.0062 60.4785 68.6412 63.1566 68.6412C65.8346 68.6412 67.5766 70.0062 67.5766 72.4502C67.5766 74.8942 65.8346 76.2592 63.1566 76.2592Z" fill="white"/>
<path d="M83.0097 71.4752L87.8327 77.0002H86.4417L82.1257 72.1122L79.0967 74.4782V77.0002H78.0047V67.9002H79.0967V73.2302L85.9867 67.9002H87.5467L83.0097 71.4752Z" fill="white"/>
<path d="M91.9479 67.9002H90.8559V77.0002H91.9479V67.9002Z" fill="white"/>
<path d="M104.975 75.4012V67.9002H106.041V77.0002H105.079L97.4352 69.2912V77.0002H96.3692V67.9002H97.5522L104.975 75.4012Z" fill="white"/>
<path d="M120.475 72.2682H115.249V73.2822H119.383V74.4652C118.707 75.7262 117.225 76.2592 115.418 76.2592C112.636 76.2592 110.894 74.9722 110.894 72.4502C110.894 69.9282 112.623 68.6412 115.34 68.6412C116.991 68.6412 118.2 69.1612 119.019 70.1882L119.968 69.5252C119.058 68.4592 117.563 67.6272 115.34 67.6272C111.856 67.6272 109.776 69.4862 109.776 72.4502C109.776 75.4142 111.856 77.2732 115.379 77.2732C117.901 77.2732 119.721 76.2072 120.475 74.7902V72.2682Z" fill="white"/>
<path d="M124.725 70.2792C124.725 71.4102 126.441 71.6442 128.586 71.8132C131.355 72.0342 133.279 72.5672 133.279 74.3612C133.279 76.0382 131.576 77.2732 128.612 77.2732C126.623 77.2732 124.712 76.6492 123.295 75.4012L124.062 74.5822C125.388 75.7522 126.857 76.2592 128.677 76.2592C130.874 76.2592 132.161 75.5702 132.161 74.4392C132.161 73.3342 130.822 73.0612 128.365 72.8532C125.934 72.6452 123.607 72.1122 123.607 70.3182C123.607 68.6022 125.765 67.6272 128.196 67.6272C130.172 67.6272 131.797 68.3162 132.85 69.2522L131.992 69.9802C131.108 69.1092 129.769 68.6542 128.248 68.6412C126.623 68.6282 124.725 69.0832 124.725 70.2792Z" fill="white"/>
</svg>
